/* XPM */
static char *_719155cf2e04e6dd98b78a1088a2a92[] = {
/* columns rows colors chars-per-pixel */
"64 64 241 2 ",
"   c #00071D",
".  c #00081D",
"X  c #0B0B1E",
"o  c #120D1C",
"O  c #020A22",
"+  c #0A0E25",
"@  c #060E2A",
"#  c #0A0F2A",
"$  c #0C0E2A",
"%  c #071126",
"&  c #0B1226",
"*  c #06122B",
"=  c #0B142C",
"-  c #0C182E",
";  c #151526",
":  c #12152B",
">  c #141A2C",
",  c #1A1A2C",
"<  c #0C1532",
"1  c #0B1B32",
"2  c #091839",
"3  c #131633",
"4  c #141B34",
"5  c #1B1D33",
"6  c #151C3A",
"7  c #191E39",
"8  c #2B1E27",
"9  c #231C2B",
"0  c #231D36",
"q  c #1C2235",
"w  c #16223B",
"e  c #182538",
"r  c #1B233C",
"t  c #2E262F",
"y  c #232235",
"u  c #22243B",
"i  c #2B2538",
"p  c #232A3C",
"a  c #372A39",
"s  c #3A333D",
"d  c #44343C",
"f  c #4A3539",
"g  c #55423F",
"h  c #64443D",
"j  c #0B1C47",
"k  c #141C44",
"l  c #061A56",
"z  c #121C5B",
"x  c #1A2445",
"c  c #112458",
"v  c #242C43",
"b  c #272945",
"n  c #352E44",
"m  c #2C3446",
"M  c #293348",
"N  c #383746",
"B  c #313455",
"V  c #031B69",
"C  c #192A67",
"Z  c #172B6E",
"A  c #072377",
"S  c #2E336F",
"D  c #473B46",
"F  c #4E314D",
"G  c #573B48",
"H  c #6F344A",
"J  c #403F6F",
"K  c #3B4458",
"L  c #394373",
"P  c #494349",
"I  c #53434B",
"U  c #5A4748",
"Y  c #474858",
"T  c #574856",
"R  c #49525C",
"E  c #57535A",
"W  c #654A49",
"Q  c #754F4F",
"!  c #69534C",
"~  c #73564C",
"^  c #78574A",
"/  c #684B56",
"(  c #695455",
")  c #765A57",
"_  c #7B5C53",
"`  c #6E615D",
"'  c #7A6455",
"]  c #7C625B",
"[  c #4C4F6D",
"{  c #524A66",
"}  c #575869",
"|  c #474976",
" . c #5B5677",
".. c #705A6B",
"X. c #655A7B",
"o. c #5A616D",
"O. c #5A6374",
"+. c #68666A",
"@. c #7A6566",
"#. c #74746C",
"$. c #636A76",
"%. c #696A78",
"&. c #776677",
"*. c #68727D",
"=. c #74747B",
"-. c #77767A",
";. c #845B4D",
":. c #844C5B",
">. c #855D53",
",. c #895956",
"<. c #915D5A",
"1. c #84614E",
"2. c #846354",
"3. c #8B6354",
"4. c #846359",
"5. c #8B6758",
"6. c #8D6A5C",
"7. c #946658",
"8. c #946C5C",
"9. c #9A715C",
"0. c #A26F5D",
"q. c #935961",
"w. c #886A65",
"e. c #976C64",
"r. c #8C7369",
"t. c #9A7567",
"y. c #94756B",
"u. c #8B6C74",
"i. c #877A79",
"p. c #977A75",
"a. c #A57765",
"s. c #AA726A",
"d. c #A37A6A",
"f. c #AB7D6B",
"g. c #A47B73",
"h. c #788D75",
"j. c #8E817F",
"k. c #98847B",
"l. c #B3826E",
"z. c #AD8471",
"x. c #A88479",
"c. c #B9887A",
"v. c #8CAC75",
"b. c #C38D7F",
"n. c #9FC87F",
"m. c #5B5A82",
"M. c #625A81",
"N. c #696788",
"B. c #766985",
"V. c #6D7586",
"C. c #777B86",
"Z. c #7A7595",
"A. c #8B6E86",
"S. c #857988",
"D. c #987884",
"F. c #856C95",
"G. c #8A7597",
"H. c #957A99",
"J. c #A67E87",
"K. c #857BA4",
"L. c #7C838B",
"P. c #78848B",
"I. c #7C8592",
"U. c #7D8896",
"Y. c #88878A",
"T. c #9A8A89",
"R. c #818693",
"E. c #848B93",
"W. c #898C97",
"Q. c #838C9B",
"!. c #899498",
"~. c #8B949D",
"^. c #939493",
"/. c #989091",
"(. c #99979A",
"). c #AB8A85",
"_. c #B68B84",
"`. c #A6918C",
"'. c #B79489",
"]. c #A98899",
"[. c #B48A90",
"{. c #A79998",
"}. c #B79A96",
"|. c #9CB08E",
" X c #B1A39D",
".X c #8686A7",
"XX c #9985A9",
"oX c #8C94A2",
"OX c #8C97A4",
"+X c #949BA3",
"@X c #9A9AA4",
"#X c #949CAA",
"$X c #A98EAE",
"%X c #A59BA7",
"&X c #BA96A4",
"*X c #99A4AB",
"=X c #9CA5AD",
"-X c #9BA5B1",
";X c #9EAAB3",
":X c #9EACB8",
">X c #A3A4AC",
",X c #A8A7A9",
"<X c #B2B2AD",
"1X c #A5A8B5",
"2X c #A2ACB4",
"3X c #ABAEB3",
"4X c #A4AEB9",
"5X c #B3ACB1",
"6X c #A5B1B6",
"7X c #ABB1B6",
"8X c #A6B2BB",
"9X c #AAB4BD",
"0X c #ACB9BE",
"qX c #B8BAB9",
"wX c #C69688",
"eX c #CE978E",
"rX c #C99C94",
"tX c #C9A093",
"yX c #D3A499",
"uX c #CCB0AE",
"iX c #E3B3A7",
"pX c #E8BBB0",
"aX c #CAC4BE",
"sX c #B8A6C3",
"dX c #AAB6C0",
"fX c #AAB7C4",
"gX c #ADBAC3",
"hX c #B1B7C2",
"jX c #B1BDC5",
"kX c #B2BFC9",
"lX c #CABBD0",
"zX c #B5C1C8",
"xX c #B4C2CA",
"cX c #C4C4C3",
"vX c #CAC7C7",
"bX c #CDCCCB",
"nX c #D1CBCA",
"mX c #D0CDCF",
"MX c #DAD8D6",
"NX c #DCD5E0",
"BX c #F8F2F1",
/* pixels */
".   .   . .       . . . . . . .             . . . .   .   o G ,.<.<.<.:.a O         .           O     O                         ",
". .     . .     . . . . . . . .             . . . . . .   o H :.,.;.,.Q a   O O O   O O . .   O         O     O           O     ",
". .     . + .   . . . . . . . .           . . . . .   .     a q.s.q.<.h + O O   O O O O O   O     O   O     O       O           ",
". . . . : > & & X . . . . . . .           . . . .   . .   O , W :.;.:.a O O   O   O     O . O     .     O                   O   ",
". . . % ; ; p m m u ; O . . . .               O . . . . O - 5 t D G D 9 O O O O O   O O   O O   O       O                       ",
". . . % ; 9 s Y ( +.( 0 . X X . O O   O     O O . . O . 4 v x 3 : 7 y q 6 $ O O O     O O   O O O O O   O   O   O     O   O     ",
". . X ; ; 9 s ( @.k.'./ % O . O O O O O O O O O . . X - v B x x 7 4 6 b N P a -   O   O O     O   O O O                       O ",
". . % ; ; 9 s U ) f._.y., O O O O O O @ O O O O . . % e b b v b b b P E ( U U P , O O O   O O   O     O O O O     O O   O O     ",
". . + & & ; F e.s.g.c.7.8 O O O O O @ @ O @ O O O O < w u k 7 x b P ( ! g P P U s % . % O   O O . O O   O . O . O O O   O O     ",
". . . + & + a e.f.b.f.s.a O O O O O O O O O O O @ O 3 x b 7 4 7 v / ~ U g s P U P - . . O O   O O . O O O O O O O O O O   O O   ",
". . X + + o f <.s.s.0.0.a O O O O O @ O @ O @ O @ O < w 6 6 2 6 p ( ! U g K s K N - % . O O O O O O O O O O O O O   O O O O O O ",
". + O $ , 9 _ f.s.7.0.;.a o X + O O O O O @ @ O O @ < w 7 6 2 6 n ! ~ ~ g D g g N > . .     O O . O O . O O . O   O O       O   ",
"O O # 9 i I ).`.y.~ h ,.c.x.U 8 o   + O # # @ O O # < 6 7 6 2 3 y W ,.>.^ W h U U p 3 D I a , . O O . O . O O . O . O O O O   O ",
"+ O & i i N Y N N s F u.g._.rX}.p.( d 8 ; : # + O # < 7 w 6 3 3 4 I 4.>.;.1.1.9.z.! ..yXuXtX).U + O O + O O + O O O O O O O O O ",
"+ + : 0 y y r u b N 9XBXuXw.w._.yXiXuX'.y.F ; + + # 4 6 7 6 < < < a ) 3.;.3.9.l.c.wX'.].yXeXc._./ + O O @ O O O O O O O O @ O @ ",
"+ + r q r r r r r { BXBXBXnXf G y.c.eXiXpXiXp.a X & 4 4 6 6 < < < 6 F _ ^ ;.9.a.c.wX'.D.J.wXa.a._.w.9 X X O + O O O + O O O @ O ",
"O + 7 7 u u r r x Y nXBXpX}.D o a ^ e.c.yXiXpXc.8 o ; 3 7 7 3 2 3 3 a >.Q ^ 8.z.c._.wXJ.&.z.a.8.d._.g.I 8 ; O O O O # O + O O @ ",
"+ & 4 7 u x 7 7 7 n 5XuXc.x.g ; , t U 4.d.b.yXiX[.W a 9 , 7 7 3 < 4 @.tXe.H / ..u.J.wX[...d.z.1.7.9.g.x.g.u./ D : + O # # + # # ",
"# = 4 r b r 7 7 7 i i.).c.z.f ; , > > a U <.s._.rXrX_.p.Q D 0 3 3 P tXtXt./ w.p.D.&.&.B.| u.z.! g ( 4.8.d.c.'.rXD.G ; + # O # # ",
"w 4 4 7 r u 7 7 4 3 s y.l.9.a - > - - > 7 F Q 7.s.wXeXyXyXrXJ./ d p.yXeXeXeXb.c.wXJ.D.| Z &.6.d ; q s / >.6.t.x._.'.p.W a 0 3 : ",
"1 > r m m b u 4 : < 9 6.s.3.8 3 : < < 2 6 4 N W ,.0.s.l.b.wXwXwX).wXwXwXb.b.b.l.f.s.s.g.L L E 9 q r 3 ; s W ' w.y.p.g._.s.:.H J ",
"O + V.7X3X%X@XC.{ m t 2.a.5.9 = < < * * < < 4 i U _ <.<.<.0.s.f.f.l.t.a.l.l.l.z.9.0.9.f.X.Z x - - - = = @ : t s D T / ) :.H F a ",
". & W.bXvXbXmXmXcX5Xi.8.a.7.9 + + @ @ @ @ = < 1 y D G Q ;.;.3.7.8.8.;.1.1.9.9.9.7.5.7.8.@.S 1 % O @ % O + O @ + & # , 0 a F F 9 ",
"O X Y.vXcXlXcXvXvXjX`.e.0.e.i O @ * 2 j 2 < < < 3 5 7 a W ;._ ;.2._ ~ ^ ' ' 1.5.5.5.5.5...c 1 % + # = + % & = = = & $ $ 3 0 N b ",
". . L.vXxXaXcXqXaXqX{.d.0.7.a O < 2 j j 2 6 u 3 3 6 6 3 0 I _ 3.2.g i D T ( 2.2.5.' 1.2.Y k e p p p p p p p p e p u p p p p p 4 ",
"5 ; Y.vXvXcXcXcXxXaX{.t.7.7.f = j j j l j b D n 0 z k k 6 4 D ] ] i @ 6 a n ( 2.5.5.] E c 2 e r > e p e > > e - & , e > q m 4 : ",
"/ D ,XbXvXbXmXbXbXcX<Xr.7.7.W 2 j j k j 6 0 a d 0 k x c x < : N T x l b D b b Y E R m x 6 * q r p p p K p K e - = { K > Y R q , ",
"Q T uXMXMXMXMXMXMXbXaXr.;.<.^ n u 6 < @ = 3 0 i 0 = < 6 3 < = - > l A b T I n k j j u K 5 O q +.^.R - 1 K p * % & $.o.; P Y : y ",
"/ w.nXMXMXNXMXMXmXbXaXi.;.3.;.W D 0 3 @ @ @ + $ : # @ + * = = * * l A z G ! ! ! U ! ' U & + & - q & % % p e * % % & - * < q * p ",
"G $XqX|.<XuXcXMXMXMXvXi.~ 3.5.h d a $ O O @ O O O O O @ @ = = = * l A V k T ~ ^ ' ' ( p > # * O O % - - e e * % & & & > = * & r ",
"T bXMXqX-.s N R $.Y.^.i.f ) 2.U D T N , O O O O + @ O @ * * = = < l A A l k D ( +.( q * 1 = * * * * - - 1 e e K K p m M - = 1 v ",
"( mXMXNXvX-.p 9 q 9 7 D ) ) ' U a %.W.C.n + @ @ @ @ = # = = < = j Z A V z C l x v w = 1 1 1 2 1 * * * - 1 e p M p p r 4 - = 4 1 ",
"h.aXbXmXbXMX<X+.M e > > N K E m e m N N r = % = * & - = = < < = Y L A V S m.l l c j 1 1 1 1 1 1 1 1 1 1 1 - 1 - - 1 1 - 1 - 1 - ",
"Y.qXaXqXaXbXbXaX,X=.E Y P e x c j K m = - - = = - = & - = = # 5 &.M.S S S | C V c 2 1 1 1 1 1 1 1 1 1 e e e e e e e r r e p p y ",
"Y.>X,X<X<XqXqXqXqX<X<X<X(.P b x x K R u u p v p p p r e 4 - = D g.p...S S C C l 1 1 M K K R R R } R o.o.o.o.o.$.O.$.*.=.-.-.P.Y.",
"C.^.^.^.|.<X<X<X<X<X<X Xi.] ( Y p e } +.+.+.+.+.$.+.#.+.R 4 7 w.d.t.e...Y c j 2 * - K O.*.*.$.-.#.*.*.h.-.-.=.=.-.=.=.-.-.-.-.-.",
"-.Y.T.Y.Y.^.|.,X X|.(.-.w.5._ ) I i } #.#.+.+.+.#.+.+.( P - D s.t.9.8.w.@.Y x 2 < M K o.o.o.o.o.*.*.*.*.*.C.C.C.L.S.R.L.R.W.W.^.",
") ` #.#.+.=.!.Y.Y.j.@.w.w.e.>.) h.R.^.W.Y.E.E.Y.E.Y.W.E.R 7 ) e.9.6.6.4.T.W.O.< s P.*X2X*X;X2X,X6X6X6X6X6X0XdXdXhX9X0XhX0X0X7X6X",
"_ ! ! W U #.,X-.` ` ~ ] w.7.5.4./.3X4X7X6X6X4X7X9X7X7X,XR n w.7.5.5.2.r.,X@X$.r m P.*X6X6X6X4X2X6X6X6X9X9X0X9X9X3X3X7X0XjXdXgX0X",
"^ ~ W W ` *X7X(.` ^ ^ ' 4.6.4.2.p.,X6X6X0X6X6X8X7X9X0X>XY G 7.7.3.2.2.T.,X+X$.x e *.*X6X2X2X2X2X6X6X,X=X>X>X>X>X>X>X-X1X2X2X8XgX",
"^ ! W @.@X0X9X9X(.] ^ 4.4.5.2.5.w.(.4X1X-X*X-X*X#X@XOXQ.B ) 7.,.1.4.] S.V.N.[ x < B | V.B.B.B.=.B.&.X.&.X.&.B.M.N.B.N.N.N.N.N..X",
";.h ( (.dXdX9X8X8X(.@.) _ >.2.2.4.T.>XN.M.M. . . . . .D m :.<.,.;.5.) }  .[ m * * j B | M.M.X.B.S.B.B.F.A.F.F.F.B.F.$XH.XX.XK.Z.",
"8.! S.8X:X8X8X8X8X8X*Xi.) _ ^ ;.2.p.>XQ.M.m.N.Z.Z.G.S. .T <.,.>.2.r.].@XsXsXN.7 3 7 | XXlXuXlXlXlX$XH.H.$X$XH.F.F.$XsX$X$X$XsXsX",
"d.y.4X9XdXdX8XdX9X9X9X6XY.) ^ _ ,.w.(.-XN.m.K.MXlX%XsX&.T ,.,.>.w.p.&X].T.^.S.T D B B [ H.&XuXuX&X].G.H.].].&X&XH.H.$X&X&XsXH.sX",
"d.T.8XdXdXdXdX9XdXdXdX9X<XY.~ 1.6.r.,X1X.Xm.M.G.[.J.&.0 T ,.,.2.w.u.u.u.u.u.w.) T B B b F A.A.D.T.G.F.G.H.H.H.H.H.F.K.K.H.K.F.F.",
"e.^.dXdXdX8X8XdXdXdX9XdX0X,Xy.9.t.k.>X4X-XN.m.M.X.X.Y 0 / <.3.e.] }  . .X. . . .}  .} [ |  . .M.m. .X.X.M.M.N.N.N.B.M.M.B.N.N.Z.",
"p.@XdX8XdX8X8XfXdXdXdX9X9X{.d.l.a.T.:X:X-XoX| | | | [ J T :.8.t.w. . .O. .%.N.N.B.C.Z.Z.R.Q.W.Q.Q.W.OXoX#X#X#X-X-X1X:X:X:X:XsXsX",
"/.7XdX8X9X9X8XdX8X9XdX9X3Xk.z.l.t.(.:X:X:X:XoXQ.Q.Q.W.OX~.w.8.t.p.{.;X2X8X9X9X9X9XgXfXgXkXhXhXhXhXjXfXjXfXfXfXfXfXfXfXfXfXfXfXsX",
"1XdX9X9X9X7X9XdX8XdX9X9X{.g.z.d.y.(.2X2X:X2X:X;X;X;X=X*X*XY.6.t.x.`.@X#XoXoXOXOX~..XQ.U.Q.Q.Q.Q..XQ.Q.I.U.Q.U.R.R.U.U.U.Q.~.~.~.",
"3XdX9X9X8X9X9X8X8XdX8X2XT.d.d.e.w.P.P.P.P.P.P.P.P.P.P.P.L.Y.r.t.t.g.T.(.OXOX#X#XQ.V.U.*XI.*.R.*XW.I.I.I.U.>X#X$.*.oXoX=XzXxXxXzX",
"9X9X9X4X8X4X8X8X-XQ.V.%.y.t.t.8.^.*X*X:X;X;X2X;X2X2X6X6X6X6Xj.r.t.t.{.hXqX0XhX0XV.K V.>X$.Y C.*XO.O.Z.~.+X9X~.R O.#X-X*XjXxXzXzX",
"3X9X9XdX:X#XU.*. .$.P.^.y.z.t.t.2X8X:XfX8X:X6X8X8X8X8X8X9X7XT.w.r.z.`.hXjXhXfX8XI.$.C.E.V.V.~.*XC.C.+X=X-X*X+XL.L.L.I.I.Q.OX+XOX",
"dX1X*XP.O.O.*.P.~.;X;X{.x.d.t.^.:X8X:X:X:X=X#XOXOXOXOXI.U.U.C.w.w.t.k.L.U.I.P.P.P.C.P.C.P.P.U.I.U.U.E.E.E.E.E.~.~.+X+X*X=X=X*X*X",
"R.N.O.$.P.+X*X;X;X;X*X{.t.t.r.,X:X-XU.P.O.N.V.C.Z.I.U.U.U.OX!.Y.r.t.k.*X=X;X6X6X8X9XdXdXfXfXxXgXgXxXkXgXzXxXjXkXzXxXxXxXxXxXxXzX",
"*.I.+X=X=X;X;X;X2X;X=X`.t.w.T.+XP.O.o.V.U.:X2X8X8X8X9X9X9XdXgX,Xr.y.k.qXxXgXgXgXfXxXzXzXxXfXdXxXgXxXkXkXkXxXxXxXxXxXxXxXxXxXxXxX",
">X2X:X2X2X2X6X6X2X6X,X`.k.' o.o.V.U.*X:X8X8X4X8X8X8X8X9X9XfXgX7Xk.y.k.3X0XgXjXzXdXdXxXxXxXxXxXdXkXgXgXkXgXxXxXkXfXzXxXxXxXxXxXxX",
";X;X2X:X;X2X2X:X;X+XW.).t.r.Y.~.2X2X2X4X8X0X9X9X8X8X8X0X0X0X0X0X/.y.k.<X0X0X0X0XzXzXzXxXxXxXzXzXzX0XzXzXzXzXzXjXzXxXxXxXxXxXxXxX",
";X2X:X:X2X:X#XU.*.o.i.).z.x.{.,X>X1X8X9XdXdXdXdX9X0X9XgXgXzXjX0X{.t.k.,X0X0X0XxX0XzXzXzXxXxXzXzXxXxXxXzXzXzXzXzXxXxXxXxXxXxXxXxX",
"8X8X9X;XoXN.O.$.C.(.{.'._.'.'.}.{.>X8X0XdXdXdXdXdXdXgXgX0XzXgXzX{.t.k. X0X0X0XzXzXzXzXzXxXxXxXzXxXxXzXzXzXzXzXzXxXxXxXxXxXxXxXxX",
";XOXV.$.o.C.(.2X7X,X(.`.`.{.}. X}.,X7X8X9X9X9XdXdXdX0X9X0X9X0XqX Xz.a.'.6X6X8X0X0XgX0XzXzX0XzXzXjXjXjXjXjXzXzXjXzXfXfXxXxXxXxXxX",
"O.} *.~.>X9X0X9X0X9X7X6X8X7X9X7X6X3X6X6X:X8X:X6X8X6X8X8X4X4X6X X}.'.z.'.,X8X9X0X0X0X0X0X0X0X0X0X0X0XjXjXjXzXjXjXxXU.P.|.xXxXxXkX",
"Q.-X4X6X7X9X9X9X9X9X0X0X9X8X9X7X6X6X6X7X8X8X2X:X:X:X;X2X2X>X,XrXtXtXx.x.,X8X9X9X0X0X0X9X0X0X0X0X0X0XjXjXgXzXjXjX*Xh.n.v.OXzXfXfX",
"2X1X2X4X7X8X8X6X6X6X6X6X6X6X2X2X2X6X6X6X6X2X;X6X2X2X2X>X1X,X{.'.b.|./.,X6X<X6X0X0X0X0X0X0X0XjXjXjXjXjXjXgXgXjXdXU.h.n.v.h.8XfXzX",
"~.OX+X(.+X+X*X+XY.P.R.(.*X(.*X(.*X^.L.R.+X+X=X(.E.Y.W.~.(.Y.r.' #.^.+X(.L.L.P.P.(.+X!.!.*X*X*X*X*X;X;X*X;X;X=X*X!.h.h.v.h.I.*X*X"
};
